<?xml version="1.0" standalone="no"?>
<!DOCTYPE svg PUBLIC "-//W3C//DTD SVG 20010904//EN"
 "http://www.w3.org/TR/2001/REC-SVG-20010904/DTD/svg10.dtd">
<svg version="1.0" xmlns="http://www.w3.org/2000/svg"
 width="512.000000pt" height="512.000000pt" viewBox="0 0 512.000000 512.000000"
 preserveAspectRatio="xMidYMid meet">
<metadata>
Created by potrace 1.11, written by Peter Selinger 2001-2013
</metadata>
<g transform="translate(0.000000,512.000000) scale(0.100000,-0.100000)"
fill="#000000" stroke="none">
<path d="M2186 5080 c-64 -41 -303 -279 -401 -401 -11 -13 -45 -56 -76 -94
-91 -113 -188 -252 -230 -330 -81 -149 -86 -231 -30 -415 47 -152 199 -404
385 -639 103 -130 106 -136 107 -185 0 -28 2 -247 4 -486 4 -412 12 -755 19
-810 2 -14 7 -60 11 -103 3 -43 8 -88 10 -100 2 -12 6 -42 9 -67 3 -25 8 -54
10 -66 2 -12 7 -45 11 -75 5 -44 25 -172 61 -384 3 -16 12 -61 20 -100 8 -38
18 -83 20 -100 20 -111 94 -375 142 -500 74 -196 165 -273 201 -170 22 65 19
396 -6 700 -10 119 -10 637 0 745 16 174 26 254 48 385 13 78 18 95 30 95 29
0 404 -158 494 -208 53 -29 94 -65 95 -83 1 -24 -129 -119 -315 -229 -175
-104 -255 -165 -255 -195 0 -24 55 -51 109 -54 102 -4 348 57 540 134 144 57
325 153 434 228 87 60 88 62 83 97 -12 85 -64 160 -221 315 -139 138 -173 167
-349 308 -61 49 -113 91 -115 93 -3 2 -6 84 -8 182 -2 97 -4 250 -6 339 l-3
161 29 34 c77 86 229 283 292 378 96 145 89 133 149 251 77 153 98 225 99 334
0 47 -27 172 -44 205 -4 8 -20 42 -35 75 -66 141 -177 289 -343 456 -188 188
-336 290 -424 293 -35 1 -42 -2 -45 -20 -3 -19 61 -124 118 -194 50 -63 109
-140 145 -190 22 -30 42 -57 45 -60 4 -3 35 -48 69 -100 118 -180 173 -324
164 -430 -4 -52 -30 -138 -48 -160 -6 -8 -14 -22 -17 -31 -7 -19 -90 -146
-114 -176 -11 -12 -37 -44 -59 -71 -48 -59 -115 -114 -152 -125 -64 -20 -573
-14 -671 8 -35 7 -96 67 -195 190 -135 169 -194 291 -182 379 15 108 100 290
280 601 212 365 236 444 111 365z"/>
<path d="M2475 4499 c-81 -8 -145 -39 -207 -102 -74 -75 -101 -141 -101 -247
0 -75 3 -93 32 -152 39 -82 85 -128 170 -171 59 -29 73 -32 152 -30 64 1 99 6
134 22 191 84 274 311 179 490 -35 67 -113 143 -169 166 -49 19 -135 30 -190
24z"/>
</g>
</svg>
